<svg xmlns="http://www.w3.org/2000/svg" xmlns:xlink="http://www.w3.org/1999/xlink" width="500" zoomAndPan="magnify" viewBox="0 0 375 374.999991" height="500" preserveAspectRatio="xMidYMid meet" version="1.0"><path fill="#ffffff" d="M 19.472656 188.234375 L 19.472656 187.5 C 19.472656 94.8125 94.867188 19.417969 187.554688 19.417969 C 280.246094 19.417969 355.640625 94.8125 355.640625 187.5 L 355.640625 188.234375 C 361.152344 187.265625 366.707031 186.796875 372.300781 186.824219 C 373.226562 186.824219 374.128906 186.824219 375.011719 186.824219 C 374.671875 83.75 290.699219 0 187.554688 0 C 84.414062 0 0.453125 83.75 0.101562 186.824219 C 0.980469 186.824219 1.886719 186.824219 2.800781 186.824219 C 8.398438 186.792969 13.957031 187.265625 19.472656 188.234375 Z M 19.472656 188.234375 " fill-opacity="1" fill-rule="nonzero"/><path fill="#2563eb" d="M 354.964844 202.636719 C 348.730469 204.191406 342.792969 206.507812 337.148438 209.578125 C 329.992188 213.179688 323.808594 216.351562 310.710938 216.351562 C 297.617188 216.351562 291.433594 213.238281 284.273438 209.578125 C 276.101562 205.472656 266.824219 200.808594 249.132812 200.808594 C 231.445312 200.808594 222.167969 205.472656 213.984375 209.578125 C 206.824219 213.179688 200.652344 216.351562 187.546875 216.351562 C 174.4375 216.351562 168.277344 213.238281 161.109375 209.578125 C 152.933594 205.472656 143.667969 200.808594 125.96875 200.808594 C 108.265625 200.808594 99 205.472656 90.828125 209.578125 C 83.65625 213.179688 77.484375 216.351562 64.390625 216.351562 C 51.292969 216.351562 45.109375 213.238281 37.953125 209.578125 C 32.589844 206.570312 26.929688 204.324219 20.964844 202.835938 C 15 201.347656 8.945312 200.671875 2.800781 200.808594 C 2.054688 200.808594 1.308594 200.808594 0.542969 200.808594 C 1.003906 207.328125 1.8125 213.804688 2.96875 220.234375 C 12.417969 220.234375 18.265625 221.894531 23.492188 224.1875 C 25.445312 225.035156 27.304688 225.972656 29.238281 226.941406 C 37.433594 231.0625 46.6875 235.710938 64.390625 235.710938 C 82.089844 235.710938 91.355469 231.0625 99.53125 226.941406 C 106.6875 223.339844 112.871094 220.234375 125.96875 220.234375 C 139.0625 220.234375 145.246094 223.339844 152.40625 226.941406 C 160.578125 231.0625 169.855469 235.710938 187.546875 235.710938 C 205.234375 235.710938 214.511719 231.0625 222.695312 226.941406 C 229.855469 223.339844 236.027344 220.234375 249.132812 220.234375 C 262.242188 220.234375 268.402344 223.339844 275.570312 226.941406 C 283.746094 231.0625 293.011719 235.710938 310.710938 235.710938 C 328.414062 235.710938 337.679688 231.0625 345.851562 226.941406 C 347.796875 225.972656 349.65625 225.023438 351.621094 224.1875 C 356.847656 221.929688 362.683594 220.257812 372.144531 220.234375 C 373.289062 213.832031 374.085938 207.386719 374.539062 200.898438 C 373.785156 200.898438 373.03125 200.898438 372.28125 200.898438 C 366.441406 200.808594 360.667969 201.390625 354.964844 202.636719 Z M 354.964844 202.636719 " fill-opacity="1" fill-rule="nonzero"/><path fill="#2563eb" d="M 337.148438 256.019531 C 329.992188 259.609375 323.808594 262.738281 310.710938 262.738281 C 297.617188 262.738281 291.433594 259.609375 284.273438 256.019531 C 276.101562 251.898438 266.824219 247.238281 249.132812 247.238281 C 231.445312 247.238281 222.167969 251.898438 213.984375 256.019531 C 206.824219 259.609375 200.652344 262.738281 187.546875 262.738281 C 174.4375 262.738281 168.277344 259.609375 161.109375 256.019531 C 152.933594 251.898438 143.667969 247.238281 125.96875 247.238281 C 108.265625 247.238281 99 251.898438 90.828125 256.019531 C 83.65625 259.609375 77.484375 262.738281 64.390625 262.738281 C 51.292969 262.738281 45.109375 259.609375 37.953125 256.019531 C 36.371094 255.21875 34.734375 254.394531 33.019531 253.59375 C 25.714844 250.105469 18.027344 248.082031 9.957031 247.519531 C 12.410156 254.785156 15.304688 261.871094 18.636719 268.777344 C 22.304688 269.992188 25.839844 271.519531 29.238281 273.359375 C 35.042969 276.507812 41.15625 278.847656 47.582031 280.378906 C 53.132812 281.582031 58.753906 282.152344 64.433594 282.097656 C 82.121094 282.097656 91.402344 277.433594 99.574219 273.3125 C 106.730469 269.714844 112.917969 266.609375 126.011719 266.609375 C 139.105469 266.609375 145.292969 269.714844 152.449219 273.3125 C 160.621094 277.433594 169.902344 282.097656 187.589844 282.097656 C 205.277344 282.097656 214.558594 277.433594 222.742188 273.3125 C 229.898438 269.714844 236.074219 266.609375 249.179688 266.609375 C 262.285156 266.609375 268.402344 269.714844 275.605469 273.292969 C 283.777344 277.410156 293.046875 282.074219 310.746094 282.074219 C 316.4375 282.128906 322.0625 281.558594 327.621094 280.359375 C 334.007812 278.800781 340.085938 276.445312 345.851562 273.292969 C 349.261719 271.457031 352.804688 269.925781 356.476562 268.699219 C 359.808594 261.8125 362.703125 254.746094 365.15625 247.496094 C 357.082031 248.050781 349.394531 250.070312 342.09375 253.558594 C 340.367188 254.394531 338.742188 255.230469 337.148438 256.019531 Z M 337.148438 256.019531 " fill-opacity="1" fill-rule="nonzero"/><path fill="#2563eb" d="M 303.828125 308.816406 C 295.214844 307.925781 290.078125 305.351562 284.320312 302.449219 C 276.148438 298.328125 266.867188 293.667969 249.179688 293.667969 C 231.492188 293.667969 222.210938 298.328125 214.027344 302.449219 C 206.871094 306.050781 200.695312 309.15625 187.589844 309.15625 C 174.484375 309.15625 168.320312 306.050781 161.152344 302.449219 C 152.980469 298.328125 143.710938 293.667969 126.011719 293.667969 C 108.3125 293.667969 99.042969 298.328125 90.871094 302.449219 C 85.101562 305.351562 79.976562 307.925781 71.375 308.816406 C 69.066406 309.054688 66.753906 309.167969 64.433594 309.15625 C 53 309.15625 46.835938 306.796875 40.726562 303.792969 C 47.828125 312.75 55.675781 320.996094 64.277344 328.527344 L 64.46875 328.527344 C 75.757812 328.527344 83.589844 326.628906 89.921875 324.191406 C 93.230469 322.878906 96.457031 321.394531 99.609375 319.742188 C 106.765625 316.140625 112.953125 313.039062 126.046875 313.039062 C 139.140625 313.039062 145.328125 316.140625 152.484375 319.742188 C 160.65625 323.851562 169.933594 328.527344 187.625 328.527344 C 205.3125 328.527344 214.59375 323.851562 222.777344 319.742188 C 229.933594 316.140625 236.109375 313.039062 249.214844 313.039062 C 262.320312 313.039062 268.402344 316.1875 275.605469 319.742188 C 278.761719 321.414062 281.992188 322.917969 285.300781 324.257812 C 291.625 326.6875 299.480469 328.582031 310.746094 328.582031 L 310.949219 328.582031 C 319.550781 321.027344 327.394531 312.757812 334.484375 303.769531 C 328.332031 306.785156 322.171875 309.15625 310.710938 309.15625 C 308.410156 309.164062 306.117188 309.050781 303.828125 308.816406 Z M 303.828125 308.816406 " fill-opacity="1" fill-rule="nonzero"/><path fill="#2563eb" d="M 249.132812 340.097656 C 231.433594 340.097656 222.167969 344.757812 213.984375 348.878906 C 207.050781 352.367188 201.035156 355.390625 188.753906 355.574219 L 186.335938 355.574219 C 174.066406 355.390625 168.050781 352.367188 161.109375 348.878906 C 152.933594 344.757812 143.667969 340.097656 125.96875 340.097656 C 123.054688 340.097656 120.324219 340.21875 117.875 340.445312 C 105.714844 341.574219 98.242188 345.152344 91.617188 348.484375 C 99.152344 353 106.96875 356.960938 115.0625 360.371094 C 118.667969 359.726562 122.304688 359.421875 125.96875 359.457031 C 139.0625 359.457031 145.246094 362.570312 152.40625 366.171875 C 160.304688 370.15625 169.28125 374.660156 185.910156 374.945312 L 189.183594 374.945312 C 205.820312 374.660156 214.773438 370.15625 222.695312 366.171875 C 229.855469 362.570312 236.027344 359.457031 249.132812 359.457031 C 252.796875 359.421875 256.433594 359.726562 260.039062 360.371094 C 268.140625 356.957031 275.964844 352.996094 283.507812 348.484375 C 276.882812 345.164062 269.398438 341.574219 257.25 340.445312 C 254.746094 340.21875 252.046875 340.097656 249.132812 340.097656 Z M 249.132812 340.097656 " fill-opacity="1" fill-rule="nonzero"/></svg>